Coordinates
version=1
nRows=15
nColumns=34
inDegrees=no

Units are S.I. units (second, meters, Newtons, ...)
If the header above contains a line with 'inDegrees', this indicates whether rotational values are in degrees (yes) or radians (no).

endheader
time	pelvis_tilt	pelvis_list	pelvis_rotation	pelvis_tx	pelvis_ty	pelvis_tz	hip_flexion_r	hip_adduction_r	hip_rotation_r	knee_angle_r	ankle_angle_r	subtalar_angle_r	mtp_angle_r	hip_flexion_l	hip_adduction_l	hip_rotation_l	knee_angle_l	ankle_angle_l	subtalar_angle_l	mtp_angle_l	lumbar_extension	lumbar_bending	lumbar_rotation	arm_flex_r	arm_add_r	arm_rot_r	elbow_flex_r	pro_sup_r	arm_flex_l	arm_add_l	arm_rot_l	elbow_flex_l	pro_sup_l
0	0.183507	-0.0108293	-0.038931	-0.194601	1.0069	-0.304528	0.336761	-0.00289666	-0.0446546	0.258661	0.0998278	0.0514116	-0.129736	-0.523599	0.00606276	-0.20662	0.189515	0.335347	0.480804	-0.129736	-0.416289	0.0690726	-0.07527	-0.0328522	-0.2136	-0.130193	0.579018	1.65476	0.21457	-0.27212	0.12007	1.25001	1.51521
0.01	0.187059	-0.019847	-0.029614	-0.179075	1.00626	-0.303324	0.326469	0.00429997	-0.066263	0.26716	0.0630451	0.0473891	-0.129736	-0.523599	-0.0113187	-0.208177	0.221077	0.320894	0.480218	-0.129736	-0.415251	0.082736	-0.0808012	-0.0335026	-0.213246	-0.127297	0.577694	1.62368	0.200746	-0.269226	0.122319	1.24584	1.47017
0.02	0.188597	-0.0271309	-0.0213831	-0.162964	1.00551	-0.302047	0.322181	0.00969516	-0.0870828	0.28464	0.0346795	0.0459605	-0.129736	-0.523599	-0.0257726	-0.202062	0.251685	0.302374	0.468245	-0.129736	-0.410706	0.0943912	-0.0861447	-0.0359629	-0.212868	-0.123868	0.577829	1.58098	0.184528	-0.266094	0.123764	1.24292	1.41043
0.03	0.190738	-0.0430126	-0.0125963	-0.147071	1.00523	-0.300649	0.31256	0.0253416	-0.104699	0.293474	0.00860097	0.0390359	-0.129736	-0.523599	-0.052788	-0.22001	0.28698	0.281841	0.484518	-0.129736	-0.409752	0.115318	-0.0870758	-0.0379341	-0.213098	-0.130132	0.573613	1.61992	0.170807	-0.259778	0.123522	1.22286	1.45925
0.04	0.194785	-0.0658402	-0.00389704	-0.130679	1.0055	-0.299085	0.304367	0.0493165	-0.1172	0.311227	-0.0169246	0.0173336	-0.129736	-0.523599	-0.0912908	-0.255312	0.333999	0.257106	0.521388	-0.129736	-0.409102	0.143509	-0.0852608	-0.0413698	-0.213566	-0.149515	0.559564	1.7668	0.155713	-0.250238	0.118059	1.17611	1.64353
0.05	0.196022	-0.0798172	0.000897553	-0.114664	1.00613	-0.297448	0.303504	0.0638513	-0.127159	0.33913	-0.0213512	0.0110299	-0.129736	-0.523599	-0.115028	-0.260896	0.37628	0.220183	0.514416	-0.129736	-0.406008	0.161322	-0.0826025	-0.0444435	-0.214358	-0.153308	0.560309	1.76583	0.14045	-0.242526	0.117295	1.15647	1.64354
0.06	0.203548	-0.0872895	0.00381174	-0.099358	1.00841	-0.294442	0.294662	0.0745198	-0.131759	0.365802	-0.0169955	0.00482847	-0.129736	-0.523599	-0.13659	-0.278151	0.423732	0.174788	0.515332	-0.129736	-0.413315	0.169693	-0.078888	-0.0436353	-0.209734	-0.160713	0.560715	1.76485	0.127311	-0.23897	0.115703	1.13633	1.6422
0.07	0.207802	-0.095528	0.00546978	-0.0840285	1.01007	-0.291294	0.289024	0.0862633	-0.133933	0.390706	-0.00674312	-0.00189327	-0.129736	-0.523599	-0.162455	-0.297286	0.485124	0.124499	0.512943	-0.129736	-0.418095	0.17802	-0.0729665	-0.0428241	-0.205066	-0.170382	0.563801	1.76361	0.115874	-0.235163	0.114242	1.11534	1.64013
0.08	0.202094	-0.108463	0.00829574	-0.0688748	1.0111	-0.289314	0.291971	0.101434	-0.135281	0.414542	0.00654275	-0.00888978	-0.129736	-0.492847	-0.190449	-0.297288	0.551025	0.0772625	0.485573	-0.129736	-0.409822	0.193601	-0.0669301	-0.045702	-0.20532	-0.175959	0.569539	1.76097	0.10221	-0.226662	0.111736	1.09014	1.6378
0.09	0.19276	-0.121275	0.0132116	-0.0539828	1.01195	-0.287439	0.295805	0.116744	-0.136287	0.432327	0.0197402	-0.0185923	-0.129736	-0.450785	-0.220647	-0.291021	0.623069	0.028879	0.445437	-0.129736	-0.397422	0.209594	-0.0636482	-0.0480777	-0.205808	-0.177777	0.575609	1.7543	0.0883434	-0.218426	0.107613	1.06326	1.63501
0.1	0.182951	-0.133913	0.0202881	-0.0394877	1.01279	-0.285687	0.297027	0.132302	-0.137109	0.443128	0.0318998	-0.0304425	-0.129736	-0.403764	-0.252139	-0.279149	0.69794	-0.0218662	0.394503	-0.129736	-0.384683	0.225634	-0.06192	-0.0500407	-0.206091	-0.179511	0.582107	1.75459	0.075658	-0.210767	0.102338	1.03294	1.6489
0.11	0.17285	-0.145998	0.0296445	-0.0254324	1.0136	-0.284121	0.296178	0.147501	-0.138382	0.447872	0.0424636	-0.0443254	-0.129736	-0.352249	-0.283667	-0.261267	0.773694	-0.0745236	0.333187	-0.129736	-0.371655	0.241324	-0.0620348	-0.0513241	-0.206425	-0.179333	0.58928	1.75299	0.0643218	-0.20424	0.0981169	1.0046	1.64435
0.12	0.163518	-0.156864	0.0407773	-0.011833	1.01449	-0.2828	0.292846	0.16143	-0.140284	0.44799	0.0519253	-0.0586544	-0.129736	-0.29812	-0.313127	-0.237726	0.847901	-0.128312	0.263024	-0.129736	-0.359577	0.255791	-0.0634294	-0.0517257	-0.206955	-0.177182	0.597051	1.74789	0.0547632	-0.19857	0.0936543	0.973855	1.64969
0.13	0.155821	-0.165918	0.0529557	0.00133448	1.0156	-0.281749	0.28661	0.173313	-0.142827	0.444845	0.0608589	-0.0716916	-0.129736	-0.243589	-0.338704	-0.210058	0.91816	-0.180559	0.187524	-0.129736	-0.349527	0.268291	-0.065311	-0.0510878	-0.207821	-0.173368	0.60494	1.74162	0.0472119	-0.193829	0.0897829	0.94208	1.65543
0.14	0.15003	-0.17265	0.0657936	0.0140578	1.01702	-0.28096	0.277562	0.18243	-0.146331	0.439547	0.0696827	-0.0819228	-0.129736	-0.19091	-0.359449	-0.181079	0.981811	-0.226109	0.111627	-0.129736	-0.342014	0.278203	-0.0673533	-0.0491426	-0.209093	-0.166835	0.613693	1.72387	0.0417553	-0.190008	0.0860051	0.908475	1.66808
